<?xml version="1.0" standalone="no"?>
<!DOCTYPE svg PUBLIC "-//W3C//DTD SVG 20010904//EN"
 "http://www.w3.org/TR/2001/REC-SVG-20010904/DTD/svg10.dtd">
<svg version="1.0" xmlns="http://www.w3.org/2000/svg"
 width="991.000000pt" height="991.000000pt" viewBox="0 0 991.000000 991.000000"
 preserveAspectRatio="xMidYMid meet">
<metadata>
Created by potrace 1.11, written by Peter Selinger 2001-2013
</metadata>
<g transform="translate(0.000000,991.000000) scale(0.100000,-0.100000)"
fill="#000000" stroke="none">
<path d="M4998 8095 c-2 -2 -59 -6 -128 -10 -68 -4 -131 -8 -140 -10 -9 -2
-45 -6 -80 -10 -36 -3 -76 -8 -90 -10 -88 -12 -127 -18 -145 -21 -11 -3 -36
-7 -55 -10 -64 -10 -243 -54 -345 -86 -162 -49 -354 -137 -463 -209 -24 -16
-45 -29 -48 -29 -14 0 -157 -116 -224 -182 -104 -102 -144 -149 -215 -258 -93
-141 -204 -377 -222 -474 -3 -17 -10 -38 -14 -48 -8 -15 151 -16 2289 -17
1263 -1 2317 -3 2342 -5 425 -36 623 -202 706 -588 27 -128 31 -259 28 -1081
-1 -469 -5 -865 -7 -882 -3 -16 -9 -50 -13 -75 -9 -54 -8 -49 -29 -130 -81
-313 -276 -463 -645 -497 -41 -4 -606 -7 -1255 -7 -1217 -1 -1260 1 -1405 40
-239 64 -375 210 -445 474 -9 33 -26 124 -30 155 -14 126 -16 231 -17 850 0
374 -4 685 -8 690 -9 11 -4175 13 -4186 2 -4 -4 -8 -801 -8 -1772 l-1 -1765
791 0 791 0 1 1213 c0 666 1 1218 1 1225 1 10 104 12 498 10 l497 -3 2 -245
c2 -388 23 -591 85 -835 175 -687 627 -1120 1354 -1301 76 -18 245 -52 300
-60 28 -4 59 -8 70 -10 11 -3 47 -7 80 -10 33 -2 65 -7 72 -9 46 -15 417 -20
1603 -20 745 0 1391 4 1435 8 106 10 219 23 300 33 40 6 168 28 215 38 14 3
36 8 49 11 62 12 225 57 301 84 496 170 852 487 1036 923 19 46 39 92 44 103
23 50 77 253 94 345 3 19 8 46 11 60 3 14 8 48 11 75 3 28 8 53 10 56 14 24
19 354 19 1279 0 1115 -1 1159 -40 1380 -20 115 -20 117 -49 222 -125 458
-377 801 -757 1032 -42 25 -80 46 -84 46 -5 0 -16 6 -24 14 -23 19 -198 92
-316 131 -208 70 -483 124 -753 150 -31 3 -88 8 -127 11 -68 7 -2661 15 -2667
9z"/>
</g>
</svg>
